<?xml version="1.0" encoding="UTF-8"?>
<!DOCTYPE svg PUBLIC "-//W3C//DTD SVG 1.1//EN" "http://www.w3.org/Graphics/SVG/1.1/DTD/svg11.dtd">
<svg xmlns="http://www.w3.org/2000/svg" version="1.1" width="550px" height="545px" style="shape-rendering:geometricPrecision; text-rendering:geometricPrecision; image-rendering:optimizeQuality; fill-rule:evenodd; clip-rule:evenodd" xmlns:xlink="http://www.w3.org/1999/xlink">
<g><path style="opacity:1" fill="#fdfefe" d="M -0.5,-0.5 C 182.833,-0.5 366.167,-0.5 549.5,-0.5C 549.5,181.167 549.5,362.833 549.5,544.5C 366.167,544.5 182.833,544.5 -0.5,544.5C -0.5,362.833 -0.5,181.167 -0.5,-0.5 Z"/></g>
<g><path style="opacity:1" fill="#61788a" d="M 291.5,45.5 C 275.818,45.325 260.151,45.6583 244.5,46.5C 253.277,44.9479 262.277,44.2812 271.5,44.5C 278.342,44.5004 285.009,44.8337 291.5,45.5 Z"/></g>
<g><path style="opacity:1" fill="#768797" d="M 296.5,45.5 C 297.833,45.5 299.167,45.5 300.5,45.5C 300.795,47.7354 300.461,49.7354 299.5,51.5C 299.5,49.8333 299.5,48.1667 299.5,46.5C 298.209,46.7373 297.209,46.404 296.5,45.5 Z"/></g>
<g><path style="opacity:1" fill="#304a64" d="M 299.5,55.5 C 299.5,56.8333 299.5,58.1667 299.5,59.5C 286.847,58.7721 274.18,58.4388 261.5,58.5C 269.323,57.6708 277.323,57.1708 285.5,57C 286.973,56.2904 287.64,55.1238 287.5,53.5C 289.199,53.3398 290.866,53.5065 292.5,54C 291.027,54.7096 290.36,55.8762 290.5,57.5C 292.92,57.2924 295.253,57.6258 297.5,58.5C 298.176,57.3984 298.842,56.3984 299.5,55.5 Z"/></g>
<g><path style="opacity:1" fill="#a9b9c5" d="M 249.5,59.5 C 244.731,60.889 239.731,61.5557 234.5,61.5C 239.269,60.111 244.269,59.4443 249.5,59.5 Z"/></g>
<g><path style="opacity:1" fill="#b7c6cf" d="M 234.5,61.5 C 234.082,62.2216 233.416,62.7216 232.5,63C 228.83,63.5482 225.163,64.0482 221.5,64.5C 225.542,62.7633 229.876,61.7633 234.5,61.5 Z"/></g>
<g><path style="opacity:1" fill="#133759" d="M 376.5,127.5 C 373.286,128.44 370.286,129.94 367.5,132C 366,132.167 364.5,132.333 363,132.5C 359.329,131.301 355.496,130.467 351.5,130C 349.132,126.385 347.132,122.552 345.5,118.5C 345.939,113.991 345.939,109.324 345.5,104.5C 345.667,100.833 345.833,97.1667 346,93.5C 347.583,93.507 349.249,93.1737 351,92.5C 351.667,93.5 351.667,94.5 351,95.5C 350.259,94.3595 349.425,94.3595 348.5,95.5C 347.505,100.792 347.172,106.125 347.5,111.5C 348.5,111.5 349.5,111.5 350.5,111.5C 350.457,114.91 350.957,118.243 352,121.5C 352.414,121.043 352.914,120.709 353.5,120.5C 354.308,122.423 354.808,124.423 355,126.5C 358.513,125.179 362.013,124.179 365.5,123.5C 366.458,122.038 367.624,120.705 369,119.5C 369.5,106.838 369.667,94.1711 369.5,81.5C 373.5,81.5 377.5,81.5 381.5,81.5C 381.906,95.2179 381.406,108.885 380,122.5C 379.303,124.584 378.136,126.251 376.5,127.5 Z"/></g>
<g><path style="opacity:1" fill="#1a3b58" d="M 365.5,123.5 C 362.013,124.179 358.513,125.179 355,126.5C 354.808,124.423 354.308,122.423 353.5,120.5C 352.914,120.709 352.414,121.043 352,121.5C 350.957,118.243 350.457,114.91 350.5,111.5C 349.5,111.5 348.5,111.5 347.5,111.5C 347.172,106.125 347.505,100.792 348.5,95.5C 349.425,94.3595 350.259,94.3595 351,95.5C 351.667,94.5 351.667,93.5 351,92.5C 349.249,93.1737 347.583,93.507 346,93.5C 345.833,97.1667 345.667,100.833 345.5,104.5C 345.939,109.324 345.939,113.991 345.5,118.5C 347.132,122.552 349.132,126.385 351.5,130C 355.496,130.467 359.329,131.301 363,132.5C 364.5,132.333 366,132.167 367.5,132C 370.286,129.94 373.286,128.44 376.5,127.5C 375.969,129.624 374.635,131.124 372.5,132C 358.207,138.099 348.373,133.932 343,119.5C 342.5,106.838 342.333,94.1711 342.5,81.5C 346.5,81.5 350.5,81.5 354.5,81.5C 354.333,93.5046 354.5,105.505 355,117.5C 356.446,122.898 359.946,124.898 365.5,123.5 Z"/></g>
<g><path style="opacity:1" fill="#264258" d="M 291.5,114.5 C 290.923,115.773 290.257,115.773 289.5,114.5C 286.192,109.369 284.359,103.702 284,97.5C 282.511,94.3327 280.845,91.3327 279,88.5C 278.667,86.8333 278.333,85.1667 278,83.5C 275.281,82.5562 272.448,82.2229 269.5,82.5C 269.5,83.5 269.5,84.5 269.5,85.5C 268.609,84.7387 267.942,83.7387 267.5,82.5C 271.715,81.2023 275.882,81.2023 280,82.5C 283.405,93.4449 287.238,104.112 291.5,114.5 Z"/></g>
<g><path style="opacity:1" fill="#274158" d="M 317.5,106.5 C 317.681,109.397 317.348,112.23 316.5,115C 315.518,117.009 314.185,117.509 312.5,116.5C 310.59,107.601 307.756,98.9347 304,90.5C 303.503,88.1902 303.337,85.8568 303.5,83.5C 301.181,82.833 298.847,82.6664 296.5,83C 294.893,84.049 294.227,85.549 294.5,87.5C 293.694,86.0028 293.028,84.3361 292.5,82.5C 296.5,81.1667 300.5,81.1667 304.5,82.5C 307.76,93.1159 310.927,103.783 314,114.5C 315.172,111.769 316.339,109.102 317.5,106.5 Z"/></g>
<g><path style="opacity:1" fill="#8c9eaa" d="M 264.5,81.5 C 265.482,84.9619 265.815,88.6286 265.5,92.5C 259.5,92.5 253.5,92.5 247.5,92.5C 247.5,95.5 247.5,98.5 247.5,101.5C 251.702,101.183 255.702,101.517 259.5,102.5C 255.167,102.5 250.833,102.5 246.5,102.5C 246.5,98.8333 246.5,95.1667 246.5,91.5C 249.5,91.5 252.5,91.5 255.5,91.5C 258.5,91.5 261.5,91.5 264.5,91.5C 264.5,88.1667 264.5,84.8333 264.5,81.5 Z"/></g>
<g><path style="opacity:1" fill="#8d9daa" d="M 391.5,81.5 C 391.5,98.5 391.5,115.5 391.5,132.5C 395.167,132.5 398.833,132.5 402.5,132.5C 402.5,123.167 402.5,113.833 402.5,104.5C 403.5,104.833 404.167,105.5 404.5,106.5C 403.507,115.318 403.173,124.318 403.5,133.5C 399.167,133.5 394.833,133.5 390.5,133.5C 390.17,115.992 390.503,98.6586 391.5,81.5 Z"/></g>
<g><path style="opacity:1" fill="#0e3558" d="M 430.5,81.5 C 430.5,98.5 430.5,115.5 430.5,132.5C 427.167,132.5 423.833,132.5 420.5,132.5C 415.167,123.833 409.833,115.167 404.5,106.5C 404.167,105.5 403.5,104.833 402.5,104.5C 400.955,103.77 400.122,102.437 400,100.5C 399.18,102.728 399.513,104.728 401,106.5C 401.667,114.167 401.667,121.833 401,129.5C 398.534,130.788 396.034,130.788 393.5,129.5C 392.501,114.181 392.167,98.8478 392.5,83.5C 395.518,83.3354 398.518,83.502 401.5,84C 402.078,85.417 403.078,86.2504 404.5,86.5C 409.309,94.1023 414.142,101.769 419,109.5C 419.5,100.173 419.666,90.8393 419.5,81.5C 423.167,81.5 426.833,81.5 430.5,81.5 Z"/></g>
<g><path style="opacity:1" fill="#0c2d46" d="M 451.5,81.5 C 451.5,98.5 451.5,115.5 451.5,132.5C 447.833,132.5 444.167,132.5 440.5,132.5C 440.5,115.5 440.5,98.5 440.5,81.5C 444.167,81.5 447.833,81.5 451.5,81.5 Z"/></g>
<g><path style="opacity:1" fill="#0c355a" d="M 441.5,82.5 C 442.5,82.5 443.5,82.5 444.5,82.5C 444.643,84.2624 444.309,85.9291 443.5,87.5C 444.32,89.1112 445.654,89.7778 447.5,89.5C 447.215,87.712 447.548,86.0453 448.5,84.5C 449.318,87.1071 449.818,89.7737 450,92.5C 450.5,105.162 450.667,117.829 450.5,130.5C 447.545,131.159 444.545,131.492 441.5,131.5C 441.5,115.167 441.5,98.8333 441.5,82.5 Z"/></g>
<g><path style="opacity:1" fill="#374d59" d="M 451.5,81.5 C 452.497,98.6586 452.83,115.992 452.5,133.5C 448.298,133.817 444.298,133.483 440.5,132.5C 444.167,132.5 447.833,132.5 451.5,132.5C 451.5,115.5 451.5,98.5 451.5,81.5 Z"/></g>
<g><path style="opacity:1" fill="#607a8f" d="M 430.5,81.5 C 431.497,98.6586 431.83,115.992 431.5,133.5C 427.629,133.815 423.962,133.482 420.5,132.5C 423.833,132.5 427.167,132.5 430.5,132.5C 430.5,115.5 430.5,98.5 430.5,81.5 Z"/></g>
<g><path style="opacity:1" fill="#103658" d="M 297.5,127.5 C 295.974,128.105 294.974,129.271 294.5,131C 287.317,132.612 284.15,129.778 285,122.5C 280.36,116.306 278.194,109.306 278.5,101.5C 277.5,101.5 276.5,101.5 275.5,101.5C 276.354,96.4471 274.687,92.7804 270.5,90.5C 269.962,88.8828 269.629,87.2161 269.5,85.5C 269.5,84.5 269.5,83.5 269.5,82.5C 272.448,82.2229 275.281,82.5562 278,83.5C 278.333,85.1667 278.667,86.8333 279,88.5C 280.845,91.3327 282.511,94.3327 284,97.5C 284.359,103.702 286.192,109.369 289.5,114.5C 290.257,115.773 290.923,115.773 291.5,114.5C 292.956,108.129 294.623,101.795 296.5,95.5C 296.032,92.7666 295.365,90.1 294.5,87.5C 294.227,85.549 294.893,84.049 296.5,83C 298.847,82.6664 301.181,82.833 303.5,83.5C 303.337,85.8568 303.503,88.1902 304,90.5C 307.756,98.9347 310.59,107.601 312.5,116.5C 314.185,117.509 315.518,117.009 316.5,115C 317.348,112.23 317.681,109.397 317.5,106.5C 319.705,98.1463 322.039,89.8129 324.5,81.5C 328.884,81.1744 333.217,81.5078 337.5,82.5C 331.506,99.1568 325.506,115.823 319.5,132.5C 315.893,133.489 312.226,133.823 308.5,133.5C 306.966,127.036 304.966,120.703 302.5,114.5C 300.973,118.991 299.306,123.324 297.5,127.5 Z"/></g>
<g><path style="opacity:1" fill="#132f45" d="M 391.5,81.5 C 395.226,81.1774 398.893,81.5108 402.5,82.5C 403.18,83.8599 403.847,85.1932 404.5,86.5C 403.078,86.2504 402.078,85.417 401.5,84C 398.518,83.502 395.518,83.3354 392.5,83.5C 392.167,98.8478 392.501,114.181 393.5,129.5C 396.034,130.788 398.534,130.788 401,129.5C 401.667,121.833 401.667,114.167 401,106.5C 399.513,104.728 399.18,102.728 400,100.5C 400.122,102.437 400.955,103.77 402.5,104.5C 402.5,113.833 402.5,123.167 402.5,132.5C 398.833,132.5 395.167,132.5 391.5,132.5C 391.5,115.5 391.5,98.5 391.5,81.5 Z"/></g>
<g><path style="opacity:1" fill="#9eafbb" d="M 259.5,102.5 C 260.482,105.962 260.815,109.629 260.5,113.5C 256.167,113.5 251.833,113.5 247.5,113.5C 247.5,116.5 247.5,119.5 247.5,122.5C 246.521,119.375 246.187,116.042 246.5,112.5C 250.833,112.5 255.167,112.5 259.5,112.5C 259.5,109.167 259.5,105.833 259.5,102.5 Z"/></g>
<g><path style="opacity:1" fill="#1e3a53" d="M 270.5,90.5 C 274.687,92.7804 276.354,96.4471 275.5,101.5C 276.5,101.5 277.5,101.5 278.5,101.5C 278.194,109.306 280.36,116.306 285,122.5C 284.15,129.778 287.317,132.612 294.5,131C 294.974,129.271 295.974,128.105 297.5,127.5C 296.85,129.435 296.517,131.435 296.5,133.5C 292.774,133.823 289.107,133.489 285.5,132.5C 280.477,118.427 275.477,104.427 270.5,90.5 Z"/></g>
<g><path style="opacity:1" fill="#0d3458" d="M 255.5,91.5 C 252.5,91.5 249.5,91.5 246.5,91.5C 246.5,95.1667 246.5,98.8333 246.5,102.5C 250.833,102.5 255.167,102.5 259.5,102.5C 259.5,105.833 259.5,109.167 259.5,112.5C 255.167,112.5 250.833,112.5 246.5,112.5C 246.187,116.042 246.521,119.375 247.5,122.5C 251.997,123.486 256.664,124.32 261.5,125C 262.423,127.041 262.756,129.208 262.5,131.5C 254.493,131.666 246.493,131.5 238.5,131C 237.874,130.25 237.374,129.416 237,128.5C 236.176,113.259 236.343,98.0922 237.5,83C 246.16,82.5002 254.827,82.3336 263.5,82.5C 263.5,85.1667 263.5,87.8333 263.5,90.5C 260.615,90.1936 257.948,90.5269 255.5,91.5 Z"/></g>
<g><path style="opacity:1" fill="#244056" d="M 264.5,81.5 C 264.5,84.8333 264.5,88.1667 264.5,91.5C 261.5,91.5 258.5,91.5 255.5,91.5C 257.948,90.5269 260.615,90.1936 263.5,90.5C 263.5,87.8333 263.5,85.1667 263.5,82.5C 254.827,82.3336 246.16,82.5002 237.5,83C 236.343,98.0922 236.176,113.259 237,128.5C 237.374,129.416 237.874,130.25 238.5,131C 246.493,131.5 254.493,131.666 262.5,131.5C 262.756,129.208 262.423,127.041 261.5,125C 256.664,124.32 251.997,123.486 247.5,122.5C 253.167,122.5 258.833,122.5 264.5,122.5C 264.5,126.167 264.5,129.833 264.5,133.5C 254.833,133.5 245.167,133.5 235.5,133.5C 235.5,116.167 235.5,98.8333 235.5,81.5C 245.167,81.5 254.833,81.5 264.5,81.5 Z"/></g>
<g><path style="opacity:1" fill="#0c3559" d="M 477.5,193.5 C 476.833,193.5 476.167,193.5 475.5,193.5C 473.833,193.5 472.167,193.5 470.5,193.5C 470.5,194.833 470.5,196.167 470.5,197.5C 466.243,196.597 463.743,198.264 463,202.5C 461.273,200.988 460.107,199.321 459.5,197.5C 457.3,199.253 456.133,201.586 456,204.5C 454.644,203.62 453.144,203.286 451.5,203.5C 451.5,205.5 451.5,207.5 451.5,209.5C 450.167,209.5 448.833,209.5 447.5,209.5C 447.5,207.5 447.5,205.5 447.5,203.5C 448.822,203.67 449.989,203.337 451,202.5C 450.079,197.102 452.246,194.769 457.5,195.5C 457.5,194.167 457.5,192.833 457.5,191.5C 459.142,190.197 460.809,188.864 462.5,187.5C 465.671,186.62 468.504,184.953 471,182.5C 471.496,177.176 472.33,172.009 473.5,167C 472.396,165.869 472.729,165.035 474.5,164.5C 478.962,169.974 482.629,175.974 485.5,182.5C 484.917,184.002 484.084,185.335 483,186.5C 480.777,184.277 479.444,181.611 479,178.5C 478.075,179.047 477.242,179.713 476.5,180.5C 480.562,184.713 482.395,189.713 482,195.5C 480.493,194.495 479.327,193.162 478.5,191.5C 477.702,191.957 477.369,192.624 477.5,193.5 Z"/></g>
<g><path style="opacity:1" fill="#173856" d="M 498.5,213.5 C 497.542,213.047 496.708,212.381 496,211.5C 494.811,206.594 493.311,201.928 491.5,197.5C 488.692,197.307 486.025,196.64 483.5,195.5C 483.5,199.5 483.5,203.5 483.5,207.5C 481.323,202.987 479.323,198.32 477.5,193.5C 477.369,192.624 477.702,191.957 478.5,191.5C 479.327,193.162 480.493,194.495 482,195.5C 482.395,189.713 480.562,184.713 476.5,180.5C 477.242,179.713 478.075,179.047 479,178.5C 479.444,181.611 480.777,184.277 483,186.5C 484.084,185.335 484.917,184.002 485.5,182.5C 482.629,175.974 478.962,169.974 474.5,164.5C 472.729,165.035 472.396,165.869 473.5,167C 472.33,172.009 471.496,177.176 471,182.5C 468.504,184.953 465.671,186.62 462.5,187.5C 465.335,185.164 468.002,182.664 470.5,180C 467.57,173.417 464.236,167.084 460.5,161C 463.731,157.727 467.398,155.394 471.5,154C 483.9,172.298 492.9,192.132 498.5,213.5 Z"/></g>
<g><path style="opacity:1" fill="#f8fbfa" d="M 475.5,193.5 C 476.167,193.5 476.833,193.5 477.5,193.5C 479.323,198.32 481.323,202.987 483.5,207.5C 484.345,210.826 484.845,214.16 485,217.5C 474.786,232.217 463.286,245.883 450.5,258.5C 446.861,245.788 442.528,233.288 437.5,221C 440.628,218.265 443.962,215.765 447.5,213.5C 457.898,208.303 467.232,201.636 475.5,193.5 Z"/></g>
<g><path style="opacity:1" fill="#153756" d="M 457.5,191.5 C 457.5,192.833 457.5,194.167 457.5,195.5C 452.246,194.769 450.079,197.102 451,202.5C 449.989,203.337 448.822,203.67 447.5,203.5C 447.5,205.5 447.5,207.5 447.5,209.5C 448.833,209.5 450.167,209.5 451.5,209.5C 451.5,207.5 451.5,205.5 451.5,203.5C 453.144,203.286 454.644,203.62 456,204.5C 456.133,201.586 457.3,199.253 459.5,197.5C 460.107,199.321 461.273,200.988 463,202.5C 463.743,198.264 466.243,196.597 470.5,197.5C 470.5,196.167 470.5,194.833 470.5,193.5C 472.167,193.5 473.833,193.5 475.5,193.5C 467.232,201.636 457.898,208.303 447.5,213.5C 446.282,212.839 444.949,212.172 443.5,211.5C 445.335,210.572 445.668,209.406 444.5,208C 442.833,207.667 441.167,207.333 439.5,207C 440.451,206.282 440.617,205.449 440,204.5C 437.959,206.65 435.459,207.65 432.5,207.5C 440.967,202.43 449.3,197.097 457.5,191.5 Z"/></g>
<g><path style="opacity:1" fill="#506579" d="M 507.5,258.5 C 508.166,264.825 508.5,271.325 508.5,278C 508.664,288.044 507.997,297.878 506.5,307.5C 507.283,291.179 507.617,274.846 507.5,258.5 Z"/></g>
<g><path style="opacity:1" fill="#103658" d="M 291.5,45.5 C 293.167,45.5 294.833,45.5 296.5,45.5C 297.209,46.404 298.209,46.7373 299.5,46.5C 299.5,48.1667 299.5,49.8333 299.5,51.5C 299.5,52.8333 299.5,54.1667 299.5,55.5C 298.842,56.3984 298.176,57.3984 297.5,58.5C 295.253,57.6258 292.92,57.2924 290.5,57.5C 290.36,55.8762 291.027,54.7096 292.5,54C 290.866,53.5065 289.199,53.3398 287.5,53.5C 287.64,55.1238 286.973,56.2904 285.5,57C 277.323,57.1708 269.323,57.6708 261.5,58.5C 257.452,58.3946 253.452,58.7279 249.5,59.5C 244.269,59.4443 239.269,60.111 234.5,61.5C 229.876,61.7633 225.542,62.7633 221.5,64.5C 165.253,78.1097 120.919,108.776 88.5,156.5C 115.174,189.352 148.841,212.019 189.5,224.5C 194.5,226.943 199.834,228.61 205.5,229.5C 226.284,235.63 247.617,239.297 269.5,240.5C 276.325,241.166 283.325,241.5 290.5,241.5C 300.384,241.708 310.051,241.042 319.5,239.5C 359.21,235.825 396.876,225.158 432.5,207.5C 435.459,207.65 437.959,206.65 440,204.5C 440.617,205.449 440.451,206.282 439.5,207C 441.167,207.333 442.833,207.667 444.5,208C 445.668,209.406 445.335,210.572 443.5,211.5C 444.949,212.172 446.282,212.839 447.5,213.5C 443.962,215.765 440.628,218.265 437.5,221C 442.528,233.288 446.861,245.788 450.5,258.5C 463.286,245.883 474.786,232.217 485,217.5C 484.845,214.16 484.345,210.826 483.5,207.5C 483.5,203.5 483.5,199.5 483.5,195.5C 486.025,196.64 488.692,197.307 491.5,197.5C 493.311,201.928 494.811,206.594 496,211.5C 496.708,212.381 497.542,213.047 498.5,213.5C 503.142,228.042 506.142,243.042 507.5,258.5C 507.617,274.846 507.283,291.179 506.5,307.5C 497.529,376.976 464.863,432.143 408.5,473C 402.471,477.347 396.138,481.18 389.5,484.5C 389.5,483.5 389.5,482.5 389.5,481.5C 383.991,482.969 378.324,484.136 372.5,485C 373.167,485.333 373.833,485.667 374.5,486C 372.22,486.233 370.22,487.066 368.5,488.5C 362.896,487.546 357.229,487.212 351.5,487.5C 351.5,486.5 351.5,485.5 351.5,484.5C 343.981,482.857 336.314,482.024 328.5,482C 321.077,479.44 313.41,477.606 305.5,476.5C 304.287,476.253 303.62,475.586 303.5,474.5C 309.43,475.921 315.43,476.921 321.5,477.5C 325.919,478.972 330.586,479.638 335.5,479.5C 346.659,480.659 357.992,480.826 369.5,480C 384.35,473.082 398.017,464.415 410.5,454C 397.584,449.19 384.918,443.69 372.5,437.5C 362.87,442.315 353.203,447.149 343.5,452C 333.738,456.53 323.738,460.364 313.5,463.5C 309.781,463.368 306.281,464.035 303,465.5C 299.859,464.678 296.693,464.011 293.5,463.5C 293.5,462.5 293.5,461.5 293.5,460.5C 294.552,460.649 295.552,460.483 296.5,460C 295.167,459.667 293.833,459.333 292.5,459C 296.848,458.16 300.514,456.327 303.5,453.5C 322.103,446.699 340.103,438.532 357.5,429C 343.79,420.45 331.123,410.616 319.5,399.5C 318.332,397.187 316.998,394.854 315.5,392.5C 313.954,391.316 312.287,390.316 310.5,389.5C 309.233,387.629 309.233,385.796 310.5,384C 309.552,383.517 308.552,383.351 307.5,383.5C 307.5,382.5 307.5,381.5 307.5,380.5C 311.152,382.401 315.152,383.401 319.5,383.5C 319.297,385.39 319.963,386.89 321.5,388C 324.562,390.238 327.896,392.072 331.5,393.5C 339.956,399.449 348.289,405.616 356.5,412C 361.451,415.298 366.618,418.131 372,420.5C 401.491,404.363 426.824,383.029 448,356.5C 449.044,339.016 448.211,321.683 445.5,304.5C 444.997,297.633 443.664,290.966 441.5,284.5C 438.239,286.949 435.239,289.616 432.5,292.5C 413.308,305.936 392.975,317.603 371.5,327.5C 364.753,329.122 358.253,331.456 352,334.5C 350.644,333.62 349.144,333.286 347.5,333.5C 347.5,332.5 347.5,331.5 347.5,330.5C 340.578,330.214 340.078,328.88 346,326.5C 347.411,327.084 348.578,327.584 349.5,328C 351.635,326.444 351.968,324.611 350.5,322.5C 380.777,309.861 408.777,293.361 434.5,273C 436.448,271.561 437.781,269.728 438.5,267.5C 435.505,256.015 432.005,244.682 428,233.5C 427.218,230.784 425.884,228.45 424,226.5C 403.668,235.444 382.834,242.444 361.5,247.5C 335.061,252.277 308.395,254.611 281.5,254.5C 271.114,254.538 260.781,253.872 250.5,252.5C 255.568,282.636 266.235,310.636 282.5,336.5C 281.776,338.218 281.109,340.052 280.5,342C 282.615,342.557 284.615,343.391 286.5,344.5C 296.881,341.835 307.214,339.168 317.5,336.5C 319.214,337.609 319.881,336.942 319.5,334.5C 325.266,334.074 330.766,332.741 336,330.5C 337.167,330.833 338.333,331.167 339.5,331.5C 337.851,332.988 335.851,333.988 333.5,334.5C 335.078,335.298 336.744,335.798 338.5,336C 337.663,337.011 337.33,338.178 337.5,339.5C 330.864,340.095 324.864,342.261 319.5,346C 310.353,347.925 301.353,350.092 292.5,352.5C 293.863,353.893 294.696,355.559 295,357.5C 295.383,356.944 295.883,356.611 296.5,356.5C 297.447,358.734 298.114,361.068 298.5,363.5C 296.451,365.715 296.451,367.715 298.5,369.5C 299.842,367.995 301.508,367.328 303.5,367.5C 303.5,368.5 303.5,369.5 303.5,370.5C 299.921,370.766 299.587,372.099 302.5,374.5C 304.575,370.753 306.908,370.587 309.5,374C 307.221,376.454 304.554,378.287 301.5,379.5C 299.734,377.072 297.401,375.405 294.5,374.5C 292.527,371.861 290.194,369.527 287.5,367.5C 285.796,363.948 283.462,360.781 280.5,358C 273.831,358.163 267.164,358.663 260.5,359.5C 228.212,361.644 195.878,362.644 163.5,362.5C 160.428,362.183 157.428,362.516 154.5,363.5C 180.932,404.269 215.599,435.936 258.5,458.5C 258.095,459.55 257.429,459.55 256.5,458.5C 255.44,460.748 253.44,461.748 250.5,461.5C 250.421,460.07 250.754,458.736 251.5,457.5C 250.975,456.808 250.308,456.308 249.5,456C 246.937,455.846 244.437,456.346 242,457.5C 239.456,457.179 238.456,455.845 239,453.5C 240.667,454.167 242.333,454.833 244,455.5C 244.781,454.056 244.614,452.723 243.5,451.5C 238.579,448.877 234.079,449.544 230,453.5C 229.805,454.819 229.972,456.153 230.5,457.5C 191.065,433.065 159.732,400.731 136.5,360.5C 126.09,358.409 115.757,356.076 105.5,353.5C 103.71,352.239 102.043,350.739 100.5,349C 94.9146,349.391 89.9146,348.057 85.5,345C 78.5168,344.885 71.8501,343.552 65.5,341C 63.3211,339.743 61.3211,338.243 59.5,336.5C 58.1038,337.852 57.4371,339.519 57.5,341.5C 57.6399,343.03 58.3065,344.03 59.5,344.5C 59.8333,345.167 60.1667,345.833 60.5,346.5C 60.3354,349.518 60.502,352.518 61,355.5C 61.3333,354.833 61.6667,354.167 62,353.5C 64.3245,359.617 65.6579,365.95 66,372.5C 67.5581,371.655 68.5581,372.321 69,374.5C 69.2784,373.584 69.7784,372.918 70.5,372.5C 91.9573,418.128 124.957,452.961 169.5,477C 195.343,476.382 221.009,473.716 246.5,469C 247.833,468.333 247.833,467.667 246.5,467C 241.603,464.392 236.937,461.559 232.5,458.5C 237.331,460.421 242.331,461.921 247.5,463C 247.167,463.333 246.833,463.667 246.5,464C 249.258,466.009 249.592,468.009 247.5,470C 248.766,470.309 249.933,470.809 251,471.5C 251.333,471.167 251.667,470.833 252,470.5C 254.014,474.522 257.014,475.522 261,473.5C 266.847,473.776 272.513,474.776 278,476.5C 278.791,477.745 279.291,479.078 279.5,480.5C 274.315,478.748 268.981,478.248 263.5,479C 250.265,482.08 236.932,484.58 223.5,486.5C 215.751,487.094 208.084,488.26 200.5,490C 203.86,492.064 207.526,493.231 211.5,493.5C 217.209,495.34 222.876,497.007 228.5,498.5C 228.062,498.435 227.728,498.601 227.5,499C 228.973,499.71 229.64,500.876 229.5,502.5C 226.15,502.665 222.817,502.498 219.5,502C 218.354,501.355 217.354,500.522 216.5,499.5C 215.5,500.833 214.5,500.833 213.5,499.5C 212.773,500.483 213.107,501.483 214.5,502.5C 217.512,503.002 219.845,504.502 221.5,507C 220.5,507.167 219.5,507.333 218.5,507.5C 209.623,505.231 200.623,503.231 191.5,501.5C 117.927,472.263 69.2607,419.93 45.5,344.5C 41.9445,331.743 39.4445,318.743 38,305.5C 37.5001,292.171 37.3334,278.837 37.5,265.5C 44.9498,180.064 85.6165,115.897 159.5,73C 186.014,58.4142 214.347,49.5809 244.5,46.5C 260.151,45.6583 275.818,45.325 291.5,45.5 Z"/></g>
<g><path style="opacity:1" fill="#b2c4ce" d="M 65.5,327.5 C 69.4503,327.488 72.7836,328.821 75.5,331.5C 71.8512,330.733 68.5178,329.4 65.5,327.5 Z"/></g>
<g><path style="opacity:1" fill="#1d3952" d="M 455.5,271.5 C 454.939,272.908 454.605,274.408 454.5,276C 458.711,295.61 461.044,315.443 461.5,335.5C 458.231,314.382 454.898,293.215 451.5,272C 452.793,271.51 454.127,271.343 455.5,271.5 Z"/></g>
<g><path style="opacity:1" fill="#cbdae1" d="M 104.5,285.5 C 106.669,291.341 108.669,297.341 110.5,303.5C 105.543,298.629 103.543,292.629 104.5,285.5 Z"/></g>
<g><path style="opacity:1" fill="#fcfdfd" d="M 445.5,304.5 C 448.211,321.683 449.044,339.016 448,356.5C 426.824,383.029 401.491,404.363 372,420.5C 366.618,418.131 361.451,415.298 356.5,412C 348.289,405.616 339.956,399.449 331.5,393.5C 318.764,382.1 307.097,369.766 296.5,356.5C 295.15,355.176 295.317,354.176 297,353.5C 322.716,347.096 347.549,338.429 371.5,327.5C 392.975,317.603 413.308,305.936 432.5,292.5C 434.952,292.376 436.952,291.376 438.5,289.5C 439.167,289.833 439.833,290.167 440.5,290.5C 441.8,295.406 443.466,300.073 445.5,304.5 Z"/></g>
<g><path style="opacity:1" fill="#d4e2e7" d="M 445.5,304.5 C 443.466,300.073 441.8,295.406 440.5,290.5C 439.833,290.167 439.167,289.833 438.5,289.5C 436.952,291.376 434.952,292.376 432.5,292.5C 435.239,289.616 438.239,286.949 441.5,284.5C 443.664,290.966 444.997,297.633 445.5,304.5 Z"/></g>
<g><path style="opacity:1" fill="#223f58" d="M 113.5,267.5 C 120.015,291.037 128.349,314.037 138.5,336.5C 133.047,330.601 129.381,323.601 127.5,315.5C 125.803,314.636 124.637,313.303 124,311.5C 123.226,307.853 122.559,304.186 122,300.5C 116.069,290.363 113.236,279.363 113.5,267.5 Z"/></g>
<g><path style="opacity:1" fill="#90a2b1" d="M 98.5,261.5 C 99.9238,263.515 100.59,265.848 100.5,268.5C 99.0762,266.485 98.4095,264.152 98.5,261.5 Z"/></g>
<g><path style="opacity:1" fill="#dce9ee" d="M 361.5,247.5 C 360.653,248.966 359.32,249.8 357.5,250C 352.601,250.072 347.934,251.072 343.5,253C 329.199,254.413 314.866,255.246 300.5,255.5C 293.991,255.5 287.658,255.166 281.5,254.5C 308.395,254.611 335.061,252.277 361.5,247.5 Z"/></g>
<g><path style="opacity:1" fill="#a5b2bf" d="M 94.5,235.5 C 95.1667,237.833 95.8333,240.167 96.5,242.5C 96.5,243.833 96.5,245.167 96.5,246.5C 94.783,243.155 94.1164,239.489 94.5,235.5 Z"/></g>
<g><path style="opacity:1" fill="#f8fbfb" d="M 461.5,335.5 C 461.044,315.443 458.711,295.61 454.5,276C 454.605,274.408 454.939,272.908 455.5,271.5C 460.74,267.767 465.574,263.434 470,258.5C 476.689,250.645 483.189,242.645 489.5,234.5C 490.192,235.025 490.692,235.692 491,236.5C 491.594,242.042 492.428,247.542 493.5,253C 489.318,283.548 478.818,311.715 462,337.5C 461.536,336.906 461.369,336.239 461.5,335.5 Z"/></g>
<g><path style="opacity:1" fill="#536c7d" d="M 319.5,239.5 C 310.051,241.042 300.384,241.708 290.5,241.5C 283.325,241.5 276.325,241.166 269.5,240.5C 286.181,240.666 302.848,240.333 319.5,239.5 Z"/></g>
<g><path style="opacity:1" fill="#193a56" d="M 105.5,197.5 C 105.187,201.042 105.521,204.375 106.5,207.5C 107.413,226.303 109.413,244.97 112.5,263.5C 110.731,257.75 108.731,251.917 106.5,246C 107.423,243.959 107.756,241.792 107.5,239.5C 105.774,239.185 104.107,239.019 102.5,239C 104.394,240.079 104.727,241.413 103.5,243C 105.495,247.463 105.662,251.963 104,256.5C 103.02,254.941 102.187,253.274 101.5,251.5C 101.167,253 100.833,254.5 100.5,256C 101.225,261.143 101.559,266.31 101.5,271.5C 100.596,270.791 100.263,269.791 100.5,268.5C 100.59,265.848 99.9238,263.515 98.5,261.5C 98.1584,256.452 97.4918,251.452 96.5,246.5C 96.5,245.167 96.5,243.833 96.5,242.5C 96.7208,239.903 97.2208,239.903 98,242.5C 99.0793,245.063 99.5793,247.729 99.5,250.5C 100.675,250.719 101.675,250.386 102.5,249.5C 102.394,245.694 102.061,241.861 101.5,238C 102.635,235.518 103.801,233.018 105,230.5C 104.639,219.335 104.805,208.335 105.5,197.5 Z"/></g>
<g><path style="opacity:1" fill="#fdfdfd" d="M 350.5,322.5 C 329.936,330.283 308.936,336.616 287.5,341.5C 285.479,340.145 283.812,338.479 282.5,336.5C 266.235,310.636 255.568,282.636 250.5,252.5C 260.781,253.872 271.114,254.538 281.5,254.5C 287.658,255.166 293.991,255.5 300.5,255.5C 314.866,255.246 329.199,254.413 343.5,253C 347.934,251.072 352.601,250.072 357.5,250C 359.32,249.8 360.653,248.966 361.5,247.5C 382.834,242.444 403.668,235.444 424,226.5C 425.884,228.45 427.218,230.784 428,233.5C 432.005,244.682 435.505,256.015 438.5,267.5C 437.781,269.728 436.448,271.561 434.5,273C 408.777,293.361 380.777,309.861 350.5,322.5 Z"/></g>
<g><path style="opacity:1" fill="#d0dce3" d="M 189.5,224.5 C 195.73,223.801 201.063,225.468 205.5,229.5C 199.834,228.61 194.5,226.943 189.5,224.5 Z"/></g>
<g><path style="opacity:1" fill="#869aaa" d="M 107.5,195.5 C 106.517,199.298 106.183,203.298 106.5,207.5C 105.521,204.375 105.187,201.042 105.5,197.5C 105.281,196.325 105.614,195.325 106.5,194.5C 107.107,194.624 107.44,194.957 107.5,195.5 Z"/></g>
<g><path style="opacity:1" fill="#fdfdfd" d="M 107.5,195.5 C 132.374,215.776 160.374,230.609 191.5,240C 205.884,244.142 220.384,247.642 235,250.5C 241.259,283.938 253.425,315.105 271.5,344C 265.508,345.276 259.508,346.443 253.5,347.5C 247.611,347.45 241.944,348.116 236.5,349.5C 228.178,350.055 219.844,350.388 211.5,350.5C 197.492,350.423 183.492,350.089 169.5,349.5C 161.027,349.486 152.694,348.486 144.5,346.5C 142.835,342.865 140.835,339.531 138.5,336.5C 128.349,314.037 120.015,291.037 113.5,267.5C 113.768,265.901 113.434,264.568 112.5,263.5C 109.413,244.97 107.413,226.303 106.5,207.5C 106.183,203.298 106.517,199.298 107.5,195.5 Z"/></g>
<g><path style="opacity:1" fill="#d1dee5" d="M 72.5,184.5 C 73.8218,187.709 72.9884,190.376 70,192.5C 69.4888,194.878 68.8221,197.212 68,199.5C 67.6667,199.167 67.3333,198.833 67,198.5C 66.7996,200.32 65.9663,201.653 64.5,202.5C 66.6557,196.196 69.3224,190.196 72.5,184.5 Z"/></g>
<g><path style="opacity:1" fill="#fbfcfc" d="M 94.5,235.5 C 94.1164,239.489 94.783,243.155 96.5,246.5C 97.4918,251.452 98.1584,256.452 98.5,261.5C 98.4095,264.152 99.0762,266.485 100.5,268.5C 100.263,269.791 100.596,270.791 101.5,271.5C 102.245,276.228 103.245,280.894 104.5,285.5C 103.543,292.629 105.543,298.629 110.5,303.5C 114.9,316.024 119.9,328.357 125.5,340.5C 125.03,341.693 124.03,342.36 122.5,342.5C 120.019,342.187 117.853,341.187 116,339.5C 113.901,340.287 111.734,340.62 109.5,340.5C 98.0822,337.812 86.7489,334.812 75.5,331.5C 72.7836,328.821 69.4503,327.488 65.5,327.5C 61.6677,327.056 58.1677,325.722 55,323.5C 46.3938,282.132 49.5604,241.798 64.5,202.5C 65.9663,201.653 66.7996,200.32 67,198.5C 67.3333,198.833 67.6667,199.167 68,199.5C 68.8221,197.212 69.4888,194.878 70,192.5C 72.9884,190.376 73.8218,187.709 72.5,184.5C 74.3778,179.078 77.0445,174.078 80.5,169.5C 84.1235,173.625 87.9568,177.625 92,181.5C 92.1406,199.544 92.9739,217.544 94.5,235.5 Z"/></g>
<g><path style="opacity:1" fill="#173855" d="M 350.5,322.5 C 351.968,324.611 351.635,326.444 349.5,328C 348.578,327.584 347.411,327.084 346,326.5C 340.078,328.88 340.578,330.214 347.5,330.5C 347.5,331.5 347.5,332.5 347.5,333.5C 349.144,333.286 350.644,333.62 352,334.5C 358.253,331.456 364.753,329.122 371.5,327.5C 347.549,338.429 322.716,347.096 297,353.5C 295.317,354.176 295.15,355.176 296.5,356.5C 295.883,356.611 295.383,356.944 295,357.5C 294.696,355.559 293.863,353.893 292.5,352.5C 301.353,350.092 310.353,347.925 319.5,346C 324.864,342.261 330.864,340.095 337.5,339.5C 337.33,338.178 337.663,337.011 338.5,336C 336.744,335.798 335.078,335.298 333.5,334.5C 335.851,333.988 337.851,332.988 339.5,331.5C 338.333,331.167 337.167,330.833 336,330.5C 330.766,332.741 325.266,334.074 319.5,334.5C 319.881,336.942 319.214,337.609 317.5,336.5C 307.214,339.168 296.881,341.835 286.5,344.5C 284.615,343.391 282.615,342.557 280.5,342C 281.109,340.052 281.776,338.218 282.5,336.5C 283.812,338.479 285.479,340.145 287.5,341.5C 308.936,336.616 329.936,330.283 350.5,322.5 Z"/></g>
<g><path style="opacity:1" fill="#c9d7de" d="M 37.5,265.5 C 37.3334,278.837 37.5001,292.171 38,305.5C 39.4445,318.743 41.9445,331.743 45.5,344.5C 43.9826,344.489 42.8159,343.823 42,342.5C 41.404,331.313 39.2373,320.48 35.5,310C 36.0528,295.157 36.7195,280.323 37.5,265.5 Z"/></g>
<g><path style="opacity:1" fill="#b7c7d4" d="M 125.5,340.5 C 127.377,341.829 127.544,343.162 126,344.5C 120.272,343.593 114.772,342.259 109.5,340.5C 111.734,340.62 113.901,340.287 116,339.5C 117.853,341.187 120.019,342.187 122.5,342.5C 124.03,342.36 125.03,341.693 125.5,340.5 Z"/></g>
<g><path style="opacity:1" fill="#f3f8f8" d="M 491.5,311.5 C 488.106,343.169 477.606,372.502 460,399.5C 460.24,386.137 461.24,372.804 463,359.5C 474.749,344.899 484.249,328.899 491.5,311.5 Z"/></g>
<g><path style="opacity:1" fill="#fcfdfd" d="M 105.5,353.5 C 115.757,356.076 126.09,358.409 136.5,360.5C 159.732,400.731 191.065,433.065 230.5,457.5C 230.842,458.338 231.508,458.672 232.5,458.5C 236.937,461.559 241.603,464.392 246.5,467C 247.833,467.667 247.833,468.333 246.5,469C 221.009,473.716 195.343,476.382 169.5,477C 124.957,452.961 91.9573,418.128 70.5,372.5C 67.1247,363.766 63.7914,355.099 60.5,346.5C 60.1667,345.833 59.8333,345.167 59.5,344.5C 59.238,343.022 59.5713,341.689 60.5,340.5C 75.1543,346.226 90.1543,350.56 105.5,353.5 Z"/></g>
<g><path style="opacity:1" fill="#223f58" d="M 105.5,353.5 C 90.1543,350.56 75.1543,346.226 60.5,340.5C 59.5713,341.689 59.238,343.022 59.5,344.5C 58.3065,344.03 57.6399,343.03 57.5,341.5C 57.4371,339.519 58.1038,337.852 59.5,336.5C 61.3211,338.243 63.3211,339.743 65.5,341C 71.8501,343.552 78.5168,344.885 85.5,345C 89.9146,348.057 94.9146,349.391 100.5,349C 102.043,350.739 103.71,352.239 105.5,353.5 Z"/></g>
<g><path style="opacity:1" fill="#50687c" d="M 253.5,347.5 C 248.056,348.884 242.389,349.55 236.5,349.5C 241.944,348.116 247.611,347.45 253.5,347.5 Z"/></g>
<g><path style="opacity:1" fill="#5f7482" d="M 169.5,349.5 C 183.492,350.089 197.492,350.423 211.5,350.5C 206.678,351.166 201.678,351.499 196.5,351.5C 187.294,351.566 178.294,350.899 169.5,349.5 Z"/></g>
<g><path style="opacity:1" fill="#ddeaef" d="M 287.5,367.5 C 284.589,366.59 282.589,364.59 281.5,361.5C 280.5,361.167 279.5,360.833 278.5,360.5C 272.553,360.066 266.553,360.066 260.5,360.5C 260.5,360.167 260.5,359.833 260.5,359.5C 267.164,358.663 273.831,358.163 280.5,358C 283.462,360.781 285.796,363.948 287.5,367.5 Z"/></g>
<g><path style="opacity:1" fill="#fcfdfd" d="M 287.5,367.5 C 290.194,369.527 292.527,371.861 294.5,374.5C 301.854,383.854 310.188,392.188 319.5,399.5C 331.123,410.616 343.79,420.45 357.5,429C 340.103,438.532 322.103,446.699 303.5,453.5C 292.923,457.025 282.256,460.358 271.5,463.5C 267.07,462.024 262.737,460.358 258.5,458.5C 215.599,435.936 180.932,404.269 154.5,363.5C 157.428,362.516 160.428,362.183 163.5,362.5C 167.312,363.324 171.312,363.824 175.5,364C 188.829,364.5 202.163,364.667 215.5,364.5C 224.733,364.925 233.733,364.259 242.5,362.5C 243.167,362.5 243.833,362.5 244.5,362.5C 249.75,362.698 254.75,362.031 259.5,360.5C 259.833,360.5 260.167,360.5 260.5,360.5C 266.553,360.066 272.553,360.066 278.5,360.5C 279.5,360.833 280.5,361.167 281.5,361.5C 282.589,364.59 284.589,366.59 287.5,367.5 Z"/></g>
<g><path style="opacity:1" fill="#26425b" d="M 260.5,359.5 C 260.5,359.833 260.5,360.167 260.5,360.5C 260.167,360.5 259.833,360.5 259.5,360.5C 254.269,360.444 249.269,361.111 244.5,362.5C 243.833,362.5 243.167,362.5 242.5,362.5C 233.326,362.84 224.326,363.507 215.5,364.5C 202.163,364.667 188.829,364.5 175.5,364C 171.312,363.824 167.312,363.324 163.5,362.5C 195.878,362.644 228.212,361.644 260.5,359.5 Z"/></g>
<g><path style="opacity:1" fill="#bac8d4" d="M 259.5,360.5 C 254.75,362.031 249.75,362.698 244.5,362.5C 249.269,361.111 254.269,360.444 259.5,360.5 Z"/></g>
<g><path style="opacity:1" fill="#c0cfd7" d="M 242.5,362.5 C 233.733,364.259 224.733,364.925 215.5,364.5C 224.326,363.507 233.326,362.84 242.5,362.5 Z"/></g>
<g><path style="opacity:1" fill="#2c4561" d="M 60.5,346.5 C 63.7914,355.099 67.1247,363.766 70.5,372.5C 69.7784,372.918 69.2784,373.584 69,374.5C 68.5581,372.321 67.5581,371.655 66,372.5C 65.6579,365.95 64.3245,359.617 62,353.5C 61.6667,354.167 61.3333,354.833 61,355.5C 60.502,352.518 60.3354,349.518 60.5,346.5 Z"/></g>
<g><path style="opacity:1" fill="#173856" d="M 296.5,356.5 C 307.097,369.766 318.764,382.1 331.5,393.5C 327.896,392.072 324.562,390.238 321.5,388C 319.963,386.89 319.297,385.39 319.5,383.5C 315.152,383.401 311.152,382.401 307.5,380.5C 307.5,381.5 307.5,382.5 307.5,383.5C 308.552,383.351 309.552,383.517 310.5,384C 309.233,385.796 309.233,387.629 310.5,389.5C 312.287,390.316 313.954,391.316 315.5,392.5C 316.998,394.854 318.332,397.187 319.5,399.5C 310.188,392.188 301.854,383.854 294.5,374.5C 297.401,375.405 299.734,377.072 301.5,379.5C 304.554,378.287 307.221,376.454 309.5,374C 306.908,370.587 304.575,370.753 302.5,374.5C 299.587,372.099 299.921,370.766 303.5,370.5C 303.5,369.5 303.5,368.5 303.5,367.5C 301.508,367.328 299.842,367.995 298.5,369.5C 296.451,367.715 296.451,365.715 298.5,363.5C 298.114,361.068 297.447,358.734 296.5,356.5 Z"/></g>
<g><path style="opacity:1" fill="#f8fafa" d="M 446.5,378.5 C 446.336,393.821 444.503,409.154 441,424.5C 435.288,431.21 429.288,437.543 423,443.5C 410.989,439.745 399.322,435.078 388,429.5C 387.383,428.551 387.549,427.718 388.5,427C 410.018,413.413 429.352,397.246 446.5,378.5 Z"/></g>
<g><path style="opacity:1" fill="#f9fbfb" d="M 335.5,479.5 C 331.081,478.028 326.414,477.362 321.5,477.5C 315.43,476.921 309.43,475.921 303.5,474.5C 300.148,474.216 297.148,473.05 294.5,471C 301.233,469.152 307.566,466.652 313.5,463.5C 323.738,460.364 333.738,456.53 343.5,452C 353.203,447.149 362.87,442.315 372.5,437.5C 384.918,443.69 397.584,449.19 410.5,454C 398.017,464.415 384.35,473.082 369.5,480C 357.992,480.826 346.659,480.659 335.5,479.5 Z"/></g>
<g><path style="opacity:1" fill="#0d3559" d="M 258.5,458.5 C 262.737,460.358 267.07,462.024 271.5,463.5C 282.256,460.358 292.923,457.025 303.5,453.5C 300.514,456.327 296.848,458.16 292.5,459C 293.833,459.333 295.167,459.667 296.5,460C 295.552,460.483 294.552,460.649 293.5,460.5C 293.5,461.5 293.5,462.5 293.5,463.5C 296.693,464.011 299.859,464.678 303,465.5C 306.281,464.035 309.781,463.368 313.5,463.5C 307.566,466.652 301.233,469.152 294.5,471C 297.148,473.05 300.148,474.216 303.5,474.5C 303.62,475.586 304.287,476.253 305.5,476.5C 313.41,477.606 321.077,479.44 328.5,482C 336.314,482.024 343.981,482.857 351.5,484.5C 351.5,485.5 351.5,486.5 351.5,487.5C 357.229,487.212 362.896,487.546 368.5,488.5C 370.22,487.066 372.22,486.233 374.5,486C 373.833,485.667 373.167,485.333 372.5,485C 378.324,484.136 383.991,482.969 389.5,481.5C 389.5,482.5 389.5,483.5 389.5,484.5C 378.084,491.206 366.084,496.873 353.5,501.5C 346.271,501.083 339.438,502.417 333,505.5C 332.228,505.355 331.561,505.022 331,504.5C 329.434,506.822 327.267,508.322 324.5,509C 311.823,510.449 299.49,512.616 287.5,515.5C 276.833,515.5 266.167,515.5 255.5,515.5C 255.5,515.167 255.5,514.833 255.5,514.5C 259.335,513.539 263.335,512.705 267.5,512C 261.82,511.445 256.154,511.612 250.5,512.5C 241.332,512.016 232.332,511.016 223.5,509.5C 223.5,508.167 223.5,506.833 223.5,505.5C 225.861,505.326 228.194,504.993 230.5,504.5C 230.5,503.5 230.5,502.5 230.5,501.5C 243.563,502.227 256.563,503.561 269.5,505.5C 289.475,504.743 308.808,502.243 327.5,498C 328.252,497.329 328.586,496.496 328.5,495.5C 329.901,495.029 331.234,494.362 332.5,493.5C 321.647,492.358 310.98,490.358 300.5,487.5C 297.639,486.478 294.972,484.978 292.5,483C 288.49,482.499 284.49,481.999 280.5,481.5C 279.833,481.5 279.5,481.167 279.5,480.5C 279.291,479.078 278.791,477.745 278,476.5C 272.513,474.776 266.847,473.776 261,473.5C 257.014,475.522 254.014,474.522 252,470.5C 251.667,470.833 251.333,471.167 251,471.5C 249.933,470.809 248.766,470.309 247.5,470C 249.592,468.009 249.258,466.009 246.5,464C 246.833,463.667 247.167,463.333 247.5,463C 242.331,461.921 237.331,460.421 232.5,458.5C 231.508,458.672 230.842,458.338 230.5,457.5C 229.972,456.153 229.805,454.819 230,453.5C 234.079,449.544 238.579,448.877 243.5,451.5C 244.614,452.723 244.781,454.056 244,455.5C 242.333,454.833 240.667,454.167 239,453.5C 238.456,455.845 239.456,457.179 242,457.5C 244.437,456.346 246.937,455.846 249.5,456C 250.308,456.308 250.975,456.808 251.5,457.5C 250.754,458.736 250.421,460.07 250.5,461.5C 253.44,461.748 255.44,460.748 256.5,458.5C 257.429,459.55 258.095,459.55 258.5,458.5 Z"/></g>
<g><path style="opacity:1" fill="#bbcbd6" d="M 321.5,477.5 C 326.414,477.362 331.081,478.028 335.5,479.5C 330.586,479.638 325.919,478.972 321.5,477.5 Z"/></g>
<g><path style="opacity:1" fill="#f5f9f9" d="M 279.5,480.5 C 279.5,481.167 279.833,481.5 280.5,481.5C 286.899,484.074 293.565,486.074 300.5,487.5C 310.98,490.358 321.647,492.358 332.5,493.5C 331.234,494.362 329.901,495.029 328.5,495.5C 295.393,503.535 262.059,504.535 228.5,498.5C 222.876,497.007 217.209,495.34 211.5,493.5C 209.958,492.859 208.624,491.859 207.5,490.5C 213.009,489.369 218.343,488.036 223.5,486.5C 236.932,484.58 250.265,482.08 263.5,479C 268.981,478.248 274.315,478.748 279.5,480.5 Z"/></g>
<g><path style="opacity:1" fill="#395166" d="M 280.5,481.5 C 284.49,481.999 288.49,482.499 292.5,483C 294.972,484.978 297.639,486.478 300.5,487.5C 293.565,486.074 286.899,484.074 280.5,481.5 Z"/></g>
<g><path style="opacity:1" fill="#bbccd6" d="M 223.5,486.5 C 218.343,488.036 213.009,489.369 207.5,490.5C 208.624,491.859 209.958,492.859 211.5,493.5C 207.526,493.231 203.86,492.064 200.5,490C 208.084,488.26 215.751,487.094 223.5,486.5 Z"/></g>
<g><path style="opacity:1" fill="#173854" d="M 328.5,495.5 C 328.586,496.496 328.252,497.329 327.5,498C 308.808,502.243 289.475,504.743 269.5,505.5C 256.563,503.561 243.563,502.227 230.5,501.5C 230.5,502.5 230.5,503.5 230.5,504.5C 228.194,504.993 225.861,505.326 223.5,505.5C 223.5,506.833 223.5,508.167 223.5,509.5C 232.332,511.016 241.332,512.016 250.5,512.5C 256.154,511.612 261.82,511.445 267.5,512C 263.335,512.705 259.335,513.539 255.5,514.5C 248.188,513.615 240.855,512.948 233.5,512.5C 218.932,510.593 204.932,506.926 191.5,501.5C 200.623,503.231 209.623,505.231 218.5,507.5C 219.5,507.333 220.5,507.167 221.5,507C 219.845,504.502 217.512,503.002 214.5,502.5C 213.107,501.483 212.773,500.483 213.5,499.5C 214.5,500.833 215.5,500.833 216.5,499.5C 217.354,500.522 218.354,501.355 219.5,502C 222.817,502.498 226.15,502.665 229.5,502.5C 229.64,500.876 228.973,499.71 227.5,499C 227.728,498.601 228.062,498.435 228.5,498.5C 262.059,504.535 295.393,503.535 328.5,495.5 Z"/></g>
<g><path style="opacity:1" fill="#264258" d="M 353.5,501.5 C 332.264,509.156 310.264,513.823 287.5,515.5C 299.49,512.616 311.823,510.449 324.5,509C 327.267,508.322 329.434,506.822 331,504.5C 331.561,505.022 332.228,505.355 333,505.5C 339.438,502.417 346.271,501.083 353.5,501.5 Z"/></g>
<g><path style="opacity:1" fill="#52687a" d="M 233.5,512.5 C 240.855,512.948 248.188,513.615 255.5,514.5C 255.5,514.833 255.5,515.167 255.5,515.5C 247.923,515.304 240.589,514.304 233.5,512.5 Z"/></g>
</svg>
